<svg id="图层_1" data-name="图层 1" xmlns="http://www.w3.org/2000/svg" xmlns:xlink="http://www.w3.org/1999/xlink" viewBox="0 0 597.06 303.51"><defs><style>.cls-1{fill:url(#新建渐变色板_1);}.cls-2{font-size:120px;fill:#4e4540;font-family:Qaranta-Bold, Qaranta;font-weight:700;}</style><linearGradient id="新建渐变色板_1" x1="301.98" y1="188" x2="301.98" y2="1.79" gradientUnits="userSpaceOnUse"><stop offset="0" stop-color="#007ba1"/><stop offset="1" stop-color="#12c1bf"/></linearGradient></defs><path class="cls-1" d="M279.7,74h67.84c.84-8.79-6.71-26.26-21.92-35.09a46,46,0,0,0-53.71,4.87,44.86,44.86,0,0,0-15.64,28.67c-1.59,11.56,1,22.14,7.35,32.23h-2.38c-9.86,0-19.72,0-29.57.06-1.87,0-2.57-.75-3.06-2.35a70.78,70.78,0,0,1-3.51-21.14,113.21,113.21,0,0,1,1.77-18.63A67.14,67.14,0,0,1,237.48,36.7a76.93,76.93,0,0,1,26.77-25A74.07,74.07,0,0,1,304,1.85c22.61.89,41.66,9.71,56.55,27a76.22,76.22,0,0,1,17.67,59.33c-.6,4.63-1.86,9.19-2.79,13.79-.37,1.82-1.22,2.63-3.28,2.62-20.34-.08-40.68,0-61-.1a4,4,0,0,1-2.59-1C302,97,295.49,90.39,289,83.83c-3.15-3.16-6.4-6.22-9.6-9.33Zm-44.56,46.78s7.64,7.9,10.84,11.14c16,16.17,32.1,32.18,48.15,48.27,2.61,2.62,5.1,5.35,7.47,7.85l67.23-67.28h-2.25c-13.09,0-26.18,0-39.28,0a4.7,4.7,0,0,0-3.67,1.49c-6.74,6.79-13.54,13.51-20.24,20.34-1,1-1.52,1.19-2.62.06-6.71-6.82-13.51-13.55-20.26-20.34a4.61,4.61,0,0,0-3.64-1.56c-7.6.1-15.2,0-22.8,0H237.62Z"/><text class="cls-2" transform="translate(-6.08 300.64)">EVCloud</text></svg>