<svg id="图层_1" data-name="图层 1" xmlns="http://www.w3.org/2000/svg" xmlns:xlink="http://www.w3.org/1999/xlink" viewBox="0 0 1022.25 188.17"><defs><style>.cls-1{fill:url(#新建渐变色板_1);}.cls-2{font-size:170px;fill:#4e4540;font-family:Qaranta-Bold, Qaranta;font-weight:700;}</style><linearGradient id="新建渐变色板_1" x1="78.3" y1="187.29" x2="78.3" y2="1.08" gradientUnits="userSpaceOnUse"><stop offset="0" stop-color="#007ba1"/><stop offset="1" stop-color="#12c1bf"/></linearGradient></defs><path class="cls-1" d="M56,73.25h67.84c.84-8.79-6.71-26.26-21.92-35.09A46,46,0,0,0,48.23,43,44.82,44.82,0,0,0,32.59,71.7c-1.59,11.56,1,22.14,7.35,32.23H37.55c-9.85,0-19.71,0-29.56.06-1.87,0-2.57-.75-3.06-2.35A70.78,70.78,0,0,1,1.42,80.5,113.21,113.21,0,0,1,3.19,61.87,67.14,67.14,0,0,1,13.8,36,76.84,76.84,0,0,1,40.57,11,74.07,74.07,0,0,1,80.32,1.14c22.61.9,41.66,9.71,56.54,27a76.14,76.14,0,0,1,17.68,59.32c-.6,4.64-1.86,9.19-2.79,13.79-.37,1.83-1.22,2.63-3.28,2.62-20.34-.08-40.69,0-61-.1a4,4,0,0,1-2.59-1c-6.57-6.53-13-13.16-19.59-19.72-3.15-3.16-6.39-6.22-9.59-9.33ZM11.46,120s7.63,7.9,10.84,11.14c16,16.17,32.1,32.18,48.15,48.27,2.61,2.62,5.1,5.35,7.47,7.85L145.15,120H142.9c-13.09,0-26.19,0-39.28,0a4.7,4.7,0,0,0-3.67,1.49C93.21,128.26,86.41,135,79.7,141.81c-1,1.05-1.51,1.19-2.61.06-6.71-6.82-13.51-13.55-20.26-20.34A4.61,4.61,0,0,0,53.19,120c-7.6.1-15.2,0-22.8,0H13.94Z"/><text class="cls-2" transform="translate(169.32 145.54)">EVCloud</text></svg>