<svg id="图层_1" data-name="图层 1" xmlns="http://www.w3.org/2000/svg" viewBox="0 0 598.38 303.46"><defs><style>.cls-1{font-size:120px;font-family:Qaranta-Bold, Qaranta;font-weight:700;}</style></defs><path d="M279.75,73.78h67.84c.84-8.79-6.71-26.26-21.92-35.08A46,46,0,0,0,272,43.57a44.79,44.79,0,0,0-15.64,28.67c-1.6,11.56,1,22.13,7.35,32.23h-2.39c-9.85,0-19.71,0-29.56.06-1.87,0-2.57-.76-3.07-2.36A71,71,0,0,1,225.15,81a113.31,113.31,0,0,1,1.77-18.63,67,67,0,0,1,10.61-25.88,77,77,0,0,1,26.77-25,74.14,74.14,0,0,1,39.75-9.84c22.6.9,41.65,9.72,56.54,27A76.08,76.08,0,0,1,378.26,88c-.59,4.64-1.86,9.19-2.78,13.79-.37,1.83-1.22,2.63-3.28,2.62-20.34-.08-40.69,0-61-.09a4,4,0,0,1-2.59-1C302,96.84,295.53,90.21,289,83.65c-3.15-3.16-6.39-6.22-9.6-9.32Zm-44.56,46.78s7.63,7.9,10.84,11.15c16,16.16,32.1,32.17,48.15,48.27,2.6,2.61,5.09,5.34,7.47,7.84l67.23-67.27h-2.25c-13.1,0-26.19,0-39.28,0a4.68,4.68,0,0,0-3.67,1.5c-6.74,6.78-13.55,13.51-20.25,20.33-1,1.06-1.51,1.19-2.62.07-6.7-6.83-13.51-13.56-20.25-20.34a4.62,4.62,0,0,0-3.64-1.57c-7.6.11-15.2,0-22.81,0H235.19Z"/><text class="cls-1" transform="translate(-6.03 300.46)">EVCloud</text></svg>