<svg id="图层_1" data-name="图层 1" xmlns="http://www.w3.org/2000/svg" viewBox="0 0 766.52 82.17"><defs><style>.cls-1{fill:#231815;}.cls-2{fill:#246fb8;}</style></defs><path class="cls-1" d="M22,82.4q-11.52,0-16.77-5.53T0,59.81V25.47Q0,14,5.24,8.41T22,2.88a50.48,50.48,0,0,1,8.53.75,39.27,39.27,0,0,1,7.38,1.9L36.07,16.37A56.73,56.73,0,0,0,30.43,15a34,34,0,0,0-6.34-.57q-6.35,0-8.65,2.7t-2.3,9.05v33q0,6.35,2.3,9.05t8.65,2.71a33.14,33.14,0,0,0,6.34-.58,54.12,54.12,0,0,0,5.64-1.38l1.85,10.83a39.27,39.27,0,0,1-7.38,1.9A50.48,50.48,0,0,1,22,82.4Z"/><path class="cls-1" d="M83.09,59.93q0,10.83-5.53,16.65T60.85,82.4a53.47,53.47,0,0,1-8.53-.75,42,42,0,0,1-7.72-1.9l1.73-11.18a33.61,33.61,0,0,0,6,1.67,36.5,36.5,0,0,0,6.92.64q6.23,0,8.47-2.54T70,60.51a30,30,0,0,0-.35-5.13,6.49,6.49,0,0,0-1.44-3.17,9,9,0,0,0-3-2.19c-1.26-.62-2.94-1.31-5-2.08a40.78,40.78,0,0,1-8.64-4.09,16.11,16.11,0,0,1-5-4.9,16.85,16.85,0,0,1-2.3-6.39,55.67,55.67,0,0,1-.58-8.7q0-11.3,5.42-16.14T65,2.88q9.8,0,16.14,2.65L79.52,16.71A58.93,58.93,0,0,0,73.18,15a34.26,34.26,0,0,0-6.8-.63q-5.52,0-7.55,2t-2,7.14a31.64,31.64,0,0,0,.23,4.32,5.34,5.34,0,0,0,1.27,2.88,9.94,9.94,0,0,0,3,2.25c1.34.69,3.25,1.54,5.7,2.54a78.21,78.21,0,0,1,8,3.86,15.12,15.12,0,0,1,4.9,4.32A15.74,15.74,0,0,1,82.4,50,57.49,57.49,0,0,1,83.09,59.93Z"/><path class="cls-1" d="M113.29,15.79V81H100.15V15.79H85.63V4.26h42.18V15.79Z"/><path class="cls-1" d="M154.09,82.4q-11.53,0-16.77-5.53t-5.24-17.06V25.47q0-11.52,5.24-17.06t16.77-5.53a50.57,50.57,0,0,1,8.53.75A39.15,39.15,0,0,1,170,5.53l-1.84,10.84A56.26,56.26,0,0,0,162.5,15a33.9,33.9,0,0,0-6.34-.57q-6.33,0-8.64,2.7t-2.31,9.05v33q0,6.35,2.31,9.05t8.64,2.71a33.07,33.07,0,0,0,6.34-.58,53.7,53.7,0,0,0,5.65-1.38L170,79.75a39.15,39.15,0,0,1-7.37,1.9A50.57,50.57,0,0,1,154.09,82.4Z"/><path class="cls-1" d="M178.17,81V2l12.91-2V81Z"/><path class="cls-1" d="M240.41,63.39q0,8.76-5.07,13.77t-15.22,5q-10.14,0-15.15-5t-5-13.77V42.87q0-8.76,5-13.77t15.15-5q10.15,0,15.22,5t5.07,13.77ZM227.5,41.49q0-3.69-2-5.19a8.82,8.82,0,0,0-5.36-1.49,8.59,8.59,0,0,0-5.3,1.49c-1.3,1-2,2.73-2,5.19V64.77c0,2.46.66,4.19,2,5.19a8.53,8.53,0,0,0,5.3,1.5,8.76,8.76,0,0,0,5.36-1.5q2-1.5,2-5.19Z"/><path class="cls-1" d="M261.85,25.24V66.15q0,4.38,4.6,4.38a14.09,14.09,0,0,0,7.27-2V25.24h12.79V81H275.79l-1.15-4a25.41,25.41,0,0,1-6.51,3.74,20,20,0,0,1-7.44,1.44q-5.88,0-8.81-2.82t-2.94-9V25.24Z"/><path class="cls-1" d="M295.61,41.72q0-9,4.21-13.31t12.5-4.32a36.11,36.11,0,0,1,5.36.4,17.45,17.45,0,0,1,4.32,1.1V2l12.91-2V81H324.65l-1.15-4a24.78,24.78,0,0,1-6.16,3.68,20,20,0,0,1-7.9,1.5q-7.26,0-10.54-4t-3.29-11.93ZM322,36.19a20.23,20.23,0,0,0-6.45-.92q-3.69,0-5.36,1.55t-1.67,5.25V65.58a6.38,6.38,0,0,0,1.15,4.09c.77,1,2.11,1.44,4,1.44a15.91,15.91,0,0,0,4.61-.63A14.63,14.63,0,0,0,322,68.8Z"/><path class="cls-1" d="M367.64,81V4.26h37.57V15.79H380.78V38.61h22.36V50.13H380.78V81Z"/><path class="cls-1" d="M423.31,58.09v4.34q0,4.8,2.25,7c1.49,1.48,4,2.23,7.43,2.23a41.82,41.82,0,0,0,6.8-.58A27.89,27.89,0,0,0,446,69.38l1.85,9.91a44.22,44.22,0,0,1-8.13,2.13,52.87,52.87,0,0,1-8.82.75q-20.51,0-20.51-19.7V43.8q0-9.69,5.07-14.7t14.18-5a23.45,23.45,0,0,1,8.41,1.33,13.82,13.82,0,0,1,5.65,3.87,15,15,0,0,1,3.11,6.13,33.33,33.33,0,0,1,.92,8.21V58.09Zm12.56-16.48a9.52,9.52,0,0,0-1.27-5.42c-.84-1.23-2.46-1.85-4.84-1.85s-4,.6-4.95,1.79-1.5,3-1.5,5.48v6.33h12.56Z"/><path class="cls-1" d="M454.89,41.72q0-9,4.2-13.31t12.51-4.32a36.08,36.08,0,0,1,5.35.4,17.66,17.66,0,0,1,4.33,1.1V2l12.9-2V81H483.93l-1.15-4a24.85,24.85,0,0,1-6.17,3.68,20,20,0,0,1-7.89,1.5q-7.28,0-10.55-4t-3.28-11.93Zm26.39-5.53a20.34,20.34,0,0,0-6.46-.92c-2.46,0-4.24.52-5.36,1.55s-1.67,2.79-1.67,5.25V65.58A6.38,6.38,0,0,0,469,69.67c.76,1,2.11,1.44,4,1.44a15.81,15.81,0,0,0,4.61-.63,14.86,14.86,0,0,0,3.69-1.68Z"/><path class="cls-1" d="M516,58.09v4.34q0,4.8,2.25,7c1.49,1.48,4,2.23,7.43,2.23a41.82,41.82,0,0,0,6.8-.58,27.89,27.89,0,0,0,6.22-1.73l1.85,9.91a44.22,44.22,0,0,1-8.13,2.13,52.87,52.87,0,0,1-8.82.75q-20.51,0-20.51-19.7V43.8q0-9.69,5.07-14.7t14.18-5a23.45,23.45,0,0,1,8.41,1.33,13.88,13.88,0,0,1,5.65,3.87,15,15,0,0,1,3.11,6.13,33.33,33.33,0,0,1,.92,8.21V58.09Zm12.56-16.48a9.52,9.52,0,0,0-1.27-5.42c-.84-1.23-2.46-1.85-4.84-1.85s-4,.6-4.95,1.79-1.5,3-1.5,5.48v6.33h12.56Z"/><path class="cls-1" d="M574.28,37.69q-3.35.69-6.45,1.61a44.75,44.75,0,0,0-6.11,2.31V81H548.81V25.24h10.61l1.26,6A21.93,21.93,0,0,1,566.73,27a29.35,29.35,0,0,1,6.86-2.31Z"/><path class="cls-1" d="M615.08,81H604.71l-1.5-4a19,19,0,0,1-5.47,3.57,18.27,18.27,0,0,1-7.67,1.61q-8,0-11-4.65t-3-12.57c0-6.21,1.26-10.51,3.8-12.93s6.61-3.61,12.22-3.61h10v-7.1q0-3.48-1.78-4.71t-5.82-1.22a31.1,31.1,0,0,0-7.15.87,34.5,34.5,0,0,0-6,1.92l-2.08-10.5A35.1,35.1,0,0,1,588.11,25a53.73,53.73,0,0,1,9.34-.86q8.76,0,13.19,3.22t4.44,11.53ZM602.17,58.55h-7.6c-2.23,0-3.71.52-4.44,1.55a8.91,8.91,0,0,0-1.1,5,9.43,9.43,0,0,0,1.1,5.18q1.1,1.62,4.44,1.62a14.43,14.43,0,0,0,4.2-.64,17.77,17.77,0,0,0,3.4-1.32Z"/><path class="cls-1" d="M650,80.33a21,21,0,0,1-4.72,1.32,32.8,32.8,0,0,1-5.88.52q-7.15,0-10-3.63a14.65,14.65,0,0,1-2.88-9.39V36.65h-6.22V25.24h6.22V10.6L639.4,9.1V25.24h11.18L650,36.65H639.4V67.19a3.94,3.94,0,0,0,.92,2.88,4.49,4.49,0,0,0,3.23.92,16.71,16.71,0,0,0,2.94-.23,16,16,0,0,0,2.36-.57Z"/><rect class="cls-1" x="657.15" y="25.24" width="12.91" height="55.78"/><path class="cls-1" d="M719.38,63.39q0,8.76-5.07,13.77t-15.21,5q-10.15,0-15.16-5t-5-13.77V42.87q0-8.76,5-13.77t15.16-5q10.14,0,15.21,5t5.07,13.77Zm-12.91-21.9q0-3.69-2-5.19a8.81,8.81,0,0,0-5.35-1.49,8.61,8.61,0,0,0-5.31,1.49c-1.3,1-2,2.73-2,5.19V64.77c0,2.46.66,4.19,2,5.19a8.54,8.54,0,0,0,5.31,1.5,8.75,8.75,0,0,0,5.35-1.5q2-1.5,2-5.19Z"/><path class="cls-1" d="M753.61,81V40.46c0-2.92-1.54-4.39-4.61-4.39a15.19,15.19,0,0,0-7.84,2V81H728.25V25.24H739l1.27,4a24.76,24.76,0,0,1,6.63-3.7,21.45,21.45,0,0,1,7.77-1.43q5.88,0,8.88,2.82t3,9.05V81Z"/><rect class="cls-2" x="657.15" y="5.98" width="12.91" height="12.12"/></svg>