<svg id="图层_1" data-name="图层 1" xmlns="http://www.w3.org/2000/svg" viewBox="0 0 1020.05 82.03"><defs><style>.cls-1{fill:#231815;}</style></defs><path class="cls-1" d="M20.31,81.23q-10.75,0-15.53-3.58Q0,74.47,0,66.1A62.05,62.05,0,0,1,1.6,53.76L6.77,23.89A47.34,47.34,0,0,1,10,13.14a14.35,14.35,0,0,1,5.18-6,30.77,30.77,0,0,1,5.17-2.39A40.1,40.1,0,0,1,29.47,4H55L50.18,15.53H31.06a14.1,14.1,0,0,0-5.17.8,6.5,6.5,0,0,0-3.19,2.78c-1.06,1.6-2.13,4.78-3.18,9.56L15.93,49.38q-2,10.75-2,14.33c0,2.39.93,4,2.79,4.78,1.85,1.07,4.91,1.59,9.16,1.59H45L40.22,81.23Z"/><path class="cls-1" d="M61.73,81.23l-2-11.15H85.62a13.69,13.69,0,0,0,5.57-.79,5,5,0,0,0,2.39-2.79,14.76,14.76,0,0,0,1.2-4.38L96,56.94a48,48,0,0,0,.8-7.16,2.7,2.7,0,0,0-.8-2,13.39,13.39,0,0,0-4.38-.4H76.46q-6,0-8.36-2.39c-1.6-1.6-2.39-4-2.39-7.17a64.55,64.55,0,0,1,.79-8l2-10.76a22.69,22.69,0,0,1,2.79-8.76,10.2,10.2,0,0,1,5.18-4.78C78.85,4.52,82.43,4,87.21,4h30.26L112.7,15.53H88a14.11,14.11,0,0,0-4,.4q-1.61.8-2.79,5.57L80,27.87a49.54,49.54,0,0,0-.79,5.18A2.69,2.69,0,0,0,80,35c.53.54,1.73.8,3.59.8H96.77q8,0,11.15,2c1.85,1.33,2.79,3.58,2.79,6.77v4.78a54.47,54.47,0,0,1-1.2,6.37l-1.59,10q-2,10-7.17,13.15A12.89,12.89,0,0,1,96,80.44a47.6,47.6,0,0,1-10.35.79Z"/><path class="cls-1" d="M174.42,4l-2,11.55H153.71l-11.55,65.7H128.23l11.94-65.7H121.06l2-11.55Z"/><path class="cls-1" d="M198.71,81.23q-10.76,0-15.53-3.58-4.78-3.18-4.78-11.55A62.68,62.68,0,0,1,180,53.76l5.18-29.87a47.34,47.34,0,0,1,3.19-10.75,14.4,14.4,0,0,1,5.17-6,31.3,31.3,0,0,1,5.18-2.39,40.1,40.1,0,0,1,9.16-.8h25.48l-4.77,11.55H209.46a14.16,14.16,0,0,0-5.18.8,6.48,6.48,0,0,0-3.18,2.78q-1.59,2.4-3.19,9.56l-3.58,20.71q-2,10.75-2,14.33c0,2.39.93,4,2.79,4.78,1.85,1.07,4.91,1.59,9.15,1.59H223.4l-4.78,11.15Z"/><path class="cls-1" d="M255.65,81.23q-8.76,0-12.34-2.38-4-2.4-4-8.77a96.74,96.74,0,0,1,1.59-13.14L251.27,0h12.35l-10,56.94a63,63,0,0,0-1.59,10,3.21,3.21,0,0,0,.8,2.39,3.09,3.09,0,0,0,2.78,1.19,28.83,28.83,0,0,0,6,.4h5.57l-4.38,10.35Z"/><path class="cls-1" d="M291.1,82q-10,0-13.94-3.18c-2.93-1.86-4.38-5.31-4.38-10.36A80.7,80.7,0,0,1,274,57.74l2.79-15.13a36.19,36.19,0,0,1,2.39-10,13.11,13.11,0,0,1,4-6,17.87,17.87,0,0,1,6.77-3.19,58.32,58.32,0,0,1,10.75-.79h6.77q9.94,0,14.34,3.18,4,3.2,4,10.36A65.17,65.17,0,0,1,324.54,47l-2.78,15.13q-1.2,7.58-2.79,10.75a19.82,19.82,0,0,1-3.58,5.18A14.22,14.22,0,0,1,309,80.84,43.61,43.61,0,0,1,297.86,82Zm3.18-10.35h4.78a24.46,24.46,0,0,0,4.78-.4,3.9,3.9,0,0,0,2.39-1.59c1.32-1.33,2.39-3.85,3.18-7.57L311.8,47a50.29,50.29,0,0,0,1.2-9.16,4.29,4.29,0,0,0-2-4,20.23,20.23,0,0,0-6.77-.8h-4.38c-3.72,0-6.24.54-7.57,1.59-1.33,1.34-2.39,4-3.19,8l-2.39,15.13a58.1,58.1,0,0,0-1.19,8.76c0,2.13.66,3.45,2,4Q289.1,71.68,294.28,71.68Z"/><path class="cls-1" d="M373.52,23.49h12.35l-10,57.74H347.24q-9.56,0-13.14-2.38c-2.65-1.6-4-4.25-4-8a80.77,80.77,0,0,1,1.59-12.34l6-35h12.74l-6,34.25a57.2,57.2,0,0,0-1.2,8.76,3.1,3.1,0,0,0,2,3.19c1.06.79,3.19,1.19,6.37,1.19h13.54Z"/><path class="cls-1" d="M435.64,0h12.75L434.05,81.23H408.17q-9.56,0-13.94-3.18c-2.92-1.85-4.38-5.18-4.38-10a60.73,60.73,0,0,1,1.59-11.15l2-13.54a58.34,58.34,0,0,1,2.79-9.95,10.9,10.9,0,0,1,4-5.58q1.59-2,5.58-3.18c2.39-.8,6.23-1.2,11.55-1.2h13.93ZM411.75,70.88H422.9l6.77-37H416.93q-5.58,0-7.57,1.59-2,2-3.18,8l-2,13.54a79.57,79.57,0,0,0-1.6,8.76c0,2.13.66,3.46,2,4Q406.58,70.88,411.75,70.88Z"/><path class="cls-1" d="M546.18,15.13H518.7l-4,21.51h27.87l-4.38,10.75H512.73l-6,33.84H493.22L506.75,4H551Z"/><path class="cls-1" d="M590.38,22.7q8.36,0,12.34,2.39c2.65,1.86,4,4.91,4,9.16a22.84,22.84,0,0,1-.4,4.38l-1.2,8c-.79,4.52-2.13,7.7-4,9.56q-3.2,2.79-9.56,2.78h-22.3l-.79,3.19a32.27,32.27,0,0,0-.4,4.38c0,1.86.53,3.06,1.59,3.58s3.19.8,6.37.8h20.31l-4,10.35H573.26q-9.57,0-13.54-2.78c-2.93-1.6-4.38-4.51-4.38-8.76a41.74,41.74,0,0,1,.79-7.17l4-22.7a30.64,30.64,0,0,1,2.79-8.36,11,11,0,0,1,3.19-4.38,14.92,14.92,0,0,1,6.77-3.59,58.24,58.24,0,0,1,10.75-.79ZM594,38.63V36.24a3.25,3.25,0,0,0-.79-2.39c-.54-.53-2.26-.8-5.18-.8h-7.17c-3.18,0-5.17.54-6,1.59a13.38,13.38,0,0,0-2.39,5.18L570.87,49h17.52a4.86,4.86,0,0,0,2.79-.8c.79-.26,1.32-1.19,1.59-2.78Z"/><path class="cls-1" d="M656.48,0h12.74L654.89,81.23H629q-9.57,0-13.94-3.18c-2.93-1.85-4.38-5.18-4.38-10a60.73,60.73,0,0,1,1.59-11.15l2-13.54a57.43,57.43,0,0,1,2.79-9.95,10.85,10.85,0,0,1,4-5.58q1.59-2,5.58-3.18,3.58-1.2,11.54-1.2H652.1ZM632.59,70.88h11.15l6.77-37H637.77q-5.58,0-7.57,1.59-2,2-3.19,8l-2,13.54a81,81,0,0,0-1.59,8.76c0,2.13.66,3.46,2,4Q627.42,70.88,632.59,70.88Z"/><path class="cls-1" d="M708.65,22.7q8.36,0,12.34,2.39,4,2.79,4,9.16a22.87,22.87,0,0,1-.39,4.38l-1.2,8q-1.2,6.78-4,9.56-3.2,2.79-9.56,2.78h-22.3l-.79,3.19a32.27,32.27,0,0,0-.4,4.38c0,1.86.53,3.06,1.59,3.58s3.19.8,6.37.8h20.31l-4,10.35H691.52q-9.56,0-13.53-2.78c-2.93-1.6-4.39-4.51-4.39-8.76a41.91,41.91,0,0,1,.8-7.17l4-22.7a30.64,30.64,0,0,1,2.79-8.36,11,11,0,0,1,3.19-4.38,14.92,14.92,0,0,1,6.77-3.59,58.24,58.24,0,0,1,10.75-.79Zm3.58,15.93V36.24a3.25,3.25,0,0,0-.8-2.39c-.53-.53-2.25-.8-5.17-.8h-7.17c-3.18,0-5.18.54-6,1.59a13.38,13.38,0,0,0-2.39,5.18L689.14,49h17.52a4.83,4.83,0,0,0,2.78-.8c.8-.26,1.33-1.19,1.6-2.78Z"/><path class="cls-1" d="M728.16,81.23l6.77-39a41,41,0,0,1,3.18-11.55,13.54,13.54,0,0,1,6-5.57q4-1.59,13.14-1.6h14.33l-4.38,10.36h-9.55a17.3,17.3,0,0,0-6,.79,6.45,6.45,0,0,0-2.78,3.19,20.66,20.66,0,0,0-1.2,5.18L740.9,81.23Z"/><path class="cls-1" d="M811.78,23.49q8.76,0,12.35,2.39a9.5,9.5,0,0,1,3.58,8q0,2-1.19,10.35l-6.37,37H789.48A17.12,17.12,0,0,1,782.71,80a7.66,7.66,0,0,1-4.77-3.19,8.63,8.63,0,0,1-1.6-5.57,56.92,56.92,0,0,1,1.2-9.56l.79-3.58a22.88,22.88,0,0,1,3.19-8.36,10.81,10.81,0,0,1,5.57-4A63.23,63.23,0,0,1,799,45h15.13a66,66,0,0,0,.8-7.57,3.48,3.48,0,0,0-1.59-2.79,14,14,0,0,0-5.58-.79H787.09L785.5,23.49ZM793.07,70.88h16.32l3.19-16.33H796.25a7.89,7.89,0,0,0-3.58.8c-1.07.54-1.73,2-2,4.38l-.4,2c-.8,4-1.19,6.24-1.19,6.77C789.09,70.08,790.41,70.88,793.07,70.88Z"/><path class="cls-1" d="M852.8,33.85l-4,23.09a62.18,62.18,0,0,0-1.6,10,3.25,3.25,0,0,0,.8,2.39c.26.79,1.06,1.19,2.39,1.19a32.55,32.55,0,0,0,6,.4h7.17l-4.38,10.35h-7.56q-8.77,0-12.75-2.78-4.38-2.79-4.38-9.16a100.67,100.67,0,0,1,1.59-12.35l4-23.09h-7.57l2-10.36h7.57l3.18-17.12h12.35l-2.79,17.12h15.93l-2,10.36Z"/><path class="cls-1" d="M875.1,81.23l10.35-57.74H897.8l-10,57.74Zm11.55-67.29L889,.8h13.14l-2.39,13.14Z"/><path class="cls-1" d="M925.67,82q-10,0-13.94-3.18-4.38-2.79-4.38-10.36a79.48,79.48,0,0,1,1.2-10.75l2.79-15.13a36.19,36.19,0,0,1,2.39-10,13.11,13.11,0,0,1,4-6,17.8,17.8,0,0,1,6.77-3.19,58.24,58.24,0,0,1,10.75-.79H942q9.94,0,14.33,3.18c2.65,2.13,4,5.58,4,10.36A65.17,65.17,0,0,1,959.12,47l-2.79,15.13c-.79,5.05-1.73,8.63-2.78,10.75A19.83,19.83,0,0,1,950,78.05a14.18,14.18,0,0,1-6.37,2.79A43.66,43.66,0,0,1,932.44,82Zm3.19-10.35h4.78a24.35,24.35,0,0,0,4.77-.4,3.87,3.87,0,0,0,2.39-1.59q2-2,3.19-7.57L946.38,47a51,51,0,0,0,1.19-9.16,4.27,4.27,0,0,0-2-4,20.15,20.15,0,0,0-6.77-.8h-4.38c-3.72,0-6.24.54-7.56,1.59-1.34,1.34-2.39,4-3.19,8l-2.39,15.13a56.78,56.78,0,0,0-1.19,8.76c0,2.13.66,3.45,2,4Q923.67,71.68,928.86,71.68Z"/><path class="cls-1" d="M1002.53,23.49q9.56,0,13.54,2.39c2.65,1.6,4,4.25,4,8a102.5,102.5,0,0,1-1.59,12.34l-6,35H999.74l6-33.84a64.74,64.74,0,0,0,1.2-9.16,4.94,4.94,0,0,0-.8-2.79,8.83,8.83,0,0,0-3.19-1.19,22,22,0,0,0-4.38-.4H985.8l-8.36,47.38H964.7l10.35-57.74Z"/></svg>