<svg id="图层_1" data-name="图层 1" xmlns="http://www.w3.org/2000/svg" viewBox="0 0 683.98 82.42"><defs><style>.cls-1{fill:#246fb8;}.cls-2{fill:#231815;}</style></defs><rect class="cls-1" x="567.78" y="1.16" width="12.91" height="12.12"/><path class="cls-2" d="M45.31,0V7.81H80.47v66H45.31V82H35.55v-8.2H0v-66H35.55V0ZM35.55,64.45V17.19H9.77V64.45Zm9.76-47.26V64.45H70.7V17.19Z"/><path class="cls-2" d="M98.83,2H182V82H98.83Zm74.22,9.38H107.81V72.66h65.24ZM167.58,57v8.59h-54.3V57h22.66V43.36H115.62V34.77h20.32V27H113.28V18.36H168V27H144.92v7.82h20.31v8.59H144.92V57ZM159,46.09l8.6,6.64-9,2.35-9-6.64Z"/><path class="cls-2" d="M198.05,11.33,200,3.12l33.2-.39-1.95,8.6h-5.86V22.66H232v9h-6.64V46.88l7,7-1.95,8.59-5.08-5.08V82H216.8V31.64H196.87v-9H216.8V11.33Zm-1.18,64.84L200.78,34l7,7-3.12,40.62ZM233.2,70.7l36.33-10.93V2.34h9.38V57l4.29-1.56,1.17,8.59-5.46,1.56V82h-9.38V68.75L234,79.3Zm28.91-21.48L257,56.64,235.94,38.28l5.08-7Zm3.51-29.3-4.68,7.42-20.71-18,5.47-7Z"/><path class="cls-2" d="M312.5,82H296.87V73.44h6.65v-18l-5.08,3.12L295.7,50l7.82-4.69V25.78h-6.65V17.19h6.65V2h9V17.19h6.64v8.59H312.5V39.84l5.08-3.12,1.56,9L312.5,50Zm9.77-34.37,5.85-6.25L350,55.08l22.27-12.89V34.38H323.83v-8.6h23.83V15.62H322.27v-9h25.39V1.17h9V6.64h26.95v9H356.64V25.78h25v20.7L357.81,60.16l24.61,15.23-5.47,7L349.61,65.23,320.31,82l-1.56-8.59L341.8,60.16Z"/><path class="cls-2" d="M473.83,54.3l5.47,18.36V82H400.39V72.66L414.84,41.8H399.22V32.42H482V41.8H425.39L410.94,72.66h58.2l-5.47-18.75ZM402.73,3.91h76.18v9.37H402.73Z"/><polygon class="cls-2" points="546.48 3.52 551.95 11.33 542.97 12.89 536.72 3.52 546.48 3.52"/><path class="cls-2" d="M532.42,62.11V70.7l-3.51,1.18V82h-8.6V74.61L496.87,82l-1.56-8.2,4.3-1.17V12.5H495.7v-9h37.11v9h-3.9V63.28ZM516,54.3H508.2V69.92L520.31,66V12.5H508.2V25.39H516V34H508.2V45.7H516Zm16.4,21.48,16-19.14H534.77v-9h18.75V23.83h-18v-9h46.87v9H562.5V47.66h20.31v9H559L538.28,82Zm30.08-12.5,8.2-2.73,12.89,17.18L575.78,82Z"/><path class="cls-2" d="M625.78,59.77h19.14v8.59H622.27L608.2,82l-9.76-2.34,12.11-11.33H597.66V59.77h18.75V41.41H600v-9h16.41V15.23H598.83v-9h17.58V2h9.37v4.3h19.14v9H625.78V32.42h17.58v9H625.78Zm48.83,9.76V38.28l-5.47-3.51L675,12.5H660.16V82h-9.38V3.52H684v8.2L677.34,37.5h6.25V78.12H666.41V69.53Z"/></svg>