<svg id="图层_1" data-name="图层 1" xmlns="http://www.w3.org/2000/svg" viewBox="0 0 983.36 101.07"><defs><style>.cls-1{fill:#231815;}</style></defs><path class="cls-1" d="M53.16,89.83H17.56c-5.29,0-9.53-2.6-12.8-7.86A34.31,34.31,0,0,1,0,63.82V37.69A34.19,34.19,0,0,1,4.73,19.43c3.19-5.14,7.46-7.74,12.83-7.74H56.65L53.16,28.84H20.86a6.84,6.84,0,0,0-5.7,3.28A15,15,0,0,0,13,40.67V60.48A14.66,14.66,0,0,0,15.19,69a6.92,6.92,0,0,0,5.67,3.22H56.65Z"/><path class="cls-1" d="M78.41,59.24c-4.54,0-8.25-2.35-11.1-7.12a32.63,32.63,0,0,1-4.28-17,31.1,31.1,0,0,1,4.28-16.65c2.74-4.52,6.41-6.75,11.1-6.75h40.11L115,28.53H79.8a3.12,3.12,0,0,0-2.59,1.79,8.68,8.68,0,0,0-1.09,4.34,9,9,0,0,0,1.09,4.09A3.43,3.43,0,0,0,80,40.54h26c4.77,0,8.56,2.35,11.41,7.12a32.68,32.68,0,0,1,4.39,17.15c0,6.82-1.46,12.7-4.39,17.59s-6.75,7.43-11.41,7.43H63.63l3.57-16.9h38.34a3.58,3.58,0,0,0,3-2.05,10.09,10.09,0,0,0,0-9.6,3.36,3.36,0,0,0-2.89-2Z"/><path class="cls-1" d="M151.39,89.83V28.65H128.2l3.49-17h56.95l-3.49,17H164.33V89.83Z"/><path class="cls-1" d="M248.93,89.83h-35.6c-5.29,0-9.53-2.6-12.79-7.86a34.22,34.22,0,0,1-4.77-18.15V37.69a34.19,34.19,0,0,1,4.73-18.26c3.19-5.14,7.47-7.74,12.83-7.74h39.09l-3.49,17.15h-32.3a6.85,6.85,0,0,0-5.7,3.28,15.06,15.06,0,0,0-2.18,8.55V60.48A14.59,14.59,0,0,0,211,69a6.91,6.91,0,0,0,5.66,3.22h35.79Z"/><path class="cls-1" d="M272.57-.26V89.83H260.68V11.69Z"/><path class="cls-1" d="M281.58,52a28,28,0,0,1,4.54-16c3-4.52,6.49-6.81,10.54-6.81h21c4.05,0,7.58,2.29,10.54,6.81a27.39,27.39,0,0,1,4.54,15.85v15.3A27.66,27.66,0,0,1,328.17,83c-3,4.52-6.6,6.81-10.65,6.81H296.77c-4,0-7.61-2.29-10.65-6.81a28.52,28.52,0,0,1-4.54-16Zm11.85,12.32a12.27,12.27,0,0,0,1.69,6.31,5.06,5.06,0,0,0,4.43,2.85h15.19a4.9,4.9,0,0,0,4.43-2.85,11.69,11.69,0,0,0,1.69-6.19V54.35a11.4,11.4,0,0,0-1.69-6.19,4.9,4.9,0,0,0-4.43-2.85H299.55a5,5,0,0,0-4.43,2.85,12,12,0,0,0-1.69,6.31Z"/><path class="cls-1" d="M352.83,29.21V64.44a11.84,11.84,0,0,0,1.68,6.69,5.19,5.19,0,0,0,4.43,2.48H375V29.21h11.85V89.83h-9.23l-1.72-7.62q-3.37,7.62-8.48,7.62H356.17c-4.06,0-7.62-2.29-10.66-6.81A28.52,28.52,0,0,1,341,67V29.21Z"/><path class="cls-1" d="M437.8,89.83,436,82.28c-2.25,5-5.06,7.55-8.48,7.55H411.06c-4.06,0-7.62-2.29-10.66-6.81a28.52,28.52,0,0,1-4.54-16V52a28,28,0,0,1,4.54-16c3-4.52,6.49-6.81,10.54-6.81H427.6c3,0,5.85,2.54,8.4,7.62a22.17,22.17,0,0,1-.86-6.94V11.69L447-.26V89.83Zm-2.66-44.52H413.83a5.17,5.17,0,0,0-4.43,2.48,11.56,11.56,0,0,0-1.68,6.68v10a11.32,11.32,0,0,0,1.72,6.63,5.23,5.23,0,0,0,4.39,2.41h21.31Z"/><path class="cls-1" d="M542.89,44.32l-3.52,17.4h-31V89.83H495.4V11.69H549l-3.53,17.4H508.34V44.32Z"/><path class="cls-1" d="M594.74,89.83H565.33c-4.05,0-7.62-2.29-10.65-6.81a28.52,28.52,0,0,1-4.54-16V52a28,28,0,0,1,4.54-16c3-4.52,6.49-6.81,10.54-6.81H585.1c4.13,0,7.65,2.29,10.54,6.81a28,28,0,0,1,4.54,16V64.26H561.8v1.61a11.13,11.13,0,0,0,1.69,6.44,5.56,5.56,0,0,0,4.39,2.47h29.94Zm-6-37.09V52A11.49,11.49,0,0,0,587,45.31a5.08,5.08,0,0,0-4.42-2.54H567.88a5.11,5.11,0,0,0-4.43,2.54,11.52,11.52,0,0,0-1.65,6.5v.93Z"/><path class="cls-1" d="M648.88,89.83l-1.8-7.55c-2.25,5-5.06,7.55-8.48,7.55H622.13c-4,0-7.61-2.29-10.65-6.81a28.52,28.52,0,0,1-4.54-16V52a28,28,0,0,1,4.54-16c3-4.52,6.49-6.81,10.54-6.81h16.66c3,0,5.85,2.54,8.4,7.62a22.17,22.17,0,0,1-.86-6.94V11.69L658.07-.26V89.83Zm-2.66-44.52H624.91a5.17,5.17,0,0,0-4.43,2.48,11.56,11.56,0,0,0-1.69,6.68v10a11.32,11.32,0,0,0,1.73,6.63,5.23,5.23,0,0,0,4.39,2.41h21.31Z"/><path class="cls-1" d="M711.69,89.83H682.28c-4.06,0-7.62-2.29-10.66-6.81a28.52,28.52,0,0,1-4.54-16V52a28,28,0,0,1,4.54-16c3-4.52,6.49-6.81,10.54-6.81h19.89c4.12,0,7.65,2.29,10.54,6.81a28,28,0,0,1,4.54,16V64.26H678.75v1.61a11.05,11.05,0,0,0,1.69,6.44,5.54,5.54,0,0,0,4.39,2.47h29.93Zm-6-37.09V52A11.57,11.57,0,0,0,704,45.31a5.11,5.11,0,0,0-4.43-2.54h-14.7a5.11,5.11,0,0,0-4.43,2.54,11.44,11.44,0,0,0-1.65,6.5v.93Z"/><path class="cls-1" d="M734.58,29.21l1.8,7.62c2.25-5.08,5-7.62,8.36-7.62h14.6L756,45.43H737.24v44.4H725.39V29.21Z"/><path class="cls-1" d="M775,89.83c-3.6,0-6.64-2-9.08-5.88a25.62,25.62,0,0,1-3.56-13.5,26.62,26.62,0,0,1,3.56-14c2.37-3.91,5.37-5.83,9.08-5.83H791.6c2.67,0,4.81,1.68,6.49,5.08V49.09A7.53,7.53,0,0,0,797,44.88,3.37,3.37,0,0,0,794,43H765.9l2.82-13.75h29.71a9.43,9.43,0,0,1,8.48,5q3,4.92,3,16.16V89.83h-9.64l-1.5-6.44c-1.88,4.27-4.13,6.44-6.76,6.44ZM798.09,64h-20a3.14,3.14,0,0,0-2.66,1.8A8.37,8.37,0,0,0,774.31,70a8.88,8.88,0,0,0,1.09,4.14,3.39,3.39,0,0,0,2.77,1.8h19.92Z"/><path class="cls-1" d="M835,43.08V68.34a12.14,12.14,0,0,0,.9,5.2,3.62,3.62,0,0,0,3.49,1.8h11.81l-3,14.49H835.54a10.29,10.29,0,0,1-9.38-5q-3-5-3-14.11V43.08h-7.54l2.85-13.87h4.69V19.43L835,7.72V29.21h14.4l-2.85,13.87Z"/><path class="cls-1" d="M868.33,5.87V20.79H856.44V5.87Zm0,23.34V89.83H856.44V29.21Z"/><path class="cls-1" d="M877.34,52a28,28,0,0,1,4.54-16c3-4.52,6.49-6.81,10.54-6.81h21c4.05,0,7.58,2.29,10.54,6.81a27.39,27.39,0,0,1,4.54,15.85v15.3A27.66,27.66,0,0,1,923.93,83c-3,4.52-6.6,6.81-10.65,6.81H892.53c-4,0-7.62-2.29-10.65-6.81a28.52,28.52,0,0,1-4.54-16Zm11.85,12.32a12.18,12.18,0,0,0,1.69,6.31,5.06,5.06,0,0,0,4.43,2.85H910.5a4.9,4.9,0,0,0,4.43-2.85,11.69,11.69,0,0,0,1.69-6.19V54.35a11.4,11.4,0,0,0-1.69-6.19,4.9,4.9,0,0,0-4.43-2.85H895.31a5,5,0,0,0-4.43,2.85,11.9,11.9,0,0,0-1.69,6.31Z"/><path class="cls-1" d="M971.5,89.83V54.16a11.2,11.2,0,0,0-1.68-6.5,5.11,5.11,0,0,0-4.43-2.54H949.33V89.83H937.48V29.21h9.23l1.76,7.62c2.25-5.08,5-7.62,8.37-7.62h11.44c4.09,0,7.61,2.29,10.58,6.81a27.67,27.67,0,0,1,4.5,15.85v38Z"/></svg>