<svg id="图层_1" data-name="图层 1" xmlns="http://www.w3.org/2000/svg" viewBox="0 0 750.22 82.4"><defs><style>.cls-1{fill:#231815;}.cls-2{fill:#246fb8;}</style></defs><path class="cls-1" d="M20.92,82.4q-11.16,0-16-5.58T0,60.32v-36Q0,13.37,4.88,7.79t16-5.58a49.32,49.32,0,0,1,8.08.7,35.47,35.47,0,0,1,6.68,1.62L34.4,12.2a46.55,46.55,0,0,0-5.81-1.33A40.08,40.08,0,0,0,22,10.34q-7,0-9.82,3.32c-1.9,2.2-2.85,5.87-2.85,11V60q0,7.68,2.85,11T22,74.27a40.08,40.08,0,0,0,6.62-.53,44.83,44.83,0,0,0,5.81-1.33l1.28,7.67A36.16,36.16,0,0,1,29,81.71,50.39,50.39,0,0,1,20.92,82.4Z"/><path class="cls-1" d="M80.08,61q0,10.2-5.11,15.82t-16,5.62c-1.09,0-2.29-.05-3.61-.17s-2.65-.29-4-.52-2.69-.51-4-.82a26.53,26.53,0,0,1-3.48-1l1.39-8a38.71,38.71,0,0,0,6.28,1.8,35.83,35.83,0,0,0,7,.64q7,0,9.71-3.14t2.73-9.76a40.56,40.56,0,0,0-.41-6.4,9.08,9.08,0,0,0-1.63-4.06A10.76,10.76,0,0,0,65.32,48q-2.32-1.28-6-2.9a54.25,54.25,0,0,1-8-4.13,18.16,18.16,0,0,1-4.94-4.53,15.64,15.64,0,0,1-2.56-5.87A38,38,0,0,1,43,22.32Q43,11.38,48.12,6.8T63.34,2.21A41.54,41.54,0,0,1,72,3a38,38,0,0,1,6.34,1.86l-1.28,7.9A62.9,62.9,0,0,0,70.66,11a33.54,33.54,0,0,0-7-.7q-6.63,0-9.06,2.75t-2.45,9.28a30,30,0,0,0,.35,5.08A7.43,7.43,0,0,0,54,30.77a11.28,11.28,0,0,0,3.37,2.69q2.27,1.29,6.1,3a71.41,71.41,0,0,1,8.25,4.41,18.24,18.24,0,0,1,5.11,4.7,15.61,15.61,0,0,1,2.56,6.26A49.11,49.11,0,0,1,80.08,61Z"/><path class="cls-1" d="M109.72,11.74V81h-9.3V11.74H85.08V3.6h40v8.14Z"/><path class="cls-1" d="M151.79,82.4q-11.16,0-16-5.58t-4.88-16.5v-36q0-10.92,4.88-16.5t16-5.58a49.32,49.32,0,0,1,8.08.7,35.67,35.67,0,0,1,6.68,1.62l-1.28,7.67a46.55,46.55,0,0,0-5.81-1.33,40.12,40.12,0,0,0-6.63-.53q-7,0-9.82,3.32c-1.9,2.2-2.85,5.87-2.85,11V60q0,7.68,2.85,11t9.82,3.31a40.12,40.12,0,0,0,6.63-.53,44.83,44.83,0,0,0,5.81-1.33l1.28,7.67a36.37,36.37,0,0,1-6.68,1.63A50.39,50.39,0,0,1,151.79,82.4Z"/><path class="cls-1" d="M176.43,81V1.28L185.49,0V81Z"/><path class="cls-1" d="M215.36,82.17q-8.84,0-13.83-4.53t-5-13.25V41.84q0-8.72,5-13.25t13.83-4.53q8.83,0,13.83,4.53t5,13.25V64.39q0,8.72-5,13.25T215.36,82.17Zm0-7.67a11.74,11.74,0,0,0,7-2q2.79-2,2.79-7.43v-24q0-5.46-2.79-7.43a13.26,13.26,0,0,0-13.94,0q-2.79,2-2.79,7.43v24q0,5.46,2.79,7.43A11.74,11.74,0,0,0,215.36,74.5Z"/><path class="cls-1" d="M253.71,25.22V68.46q0,5.58,5.7,5.58a19,19,0,0,0,5.93-1,41.88,41.88,0,0,0,5.58-2.27V25.22H280V81h-7.67l-.93-4.07a24.74,24.74,0,0,1-7,3.72,24.13,24.13,0,0,1-8.26,1.51q-5.56,0-8.54-2.73t-3-8.66V25.22Z"/><path class="cls-1" d="M291.25,40.45q0-8.73,4.42-12.56t12.09-3.83a37.69,37.69,0,0,1,6.16.46,28,28,0,0,1,4.76,1.14V1.28L327.75,0V81h-7.44l-.93-4.15A32.53,32.53,0,0,1,313,80.52a20.43,20.43,0,0,1-8.37,1.65q-7,0-10.17-4T291.25,67Zm27.43-7.21A29,29,0,0,0,309.39,32c-3.26,0-5.58.64-7,1.92s-2.09,3.54-2.09,6.8V66.6a9.47,9.47,0,0,0,1.45,5.69q1.46,2,5.06,2a20.35,20.35,0,0,0,6.39-1,21.9,21.9,0,0,0,5.46-2.62Z"/><path class="cls-1" d="M362.85,81V3.6h35.21v8.14H372.15V39.52H396v8.13H372.15V81Z"/><path class="cls-1" d="M413.41,56.37v7q0,6,2.55,8.66c1.71,1.74,4.54,2.62,8.49,2.62a32.89,32.89,0,0,0,13.13-2.56l1.4,7.21a29,29,0,0,1-7,2.09,45.74,45.74,0,0,1-8.48.81q-9.42,0-14.3-4.94t-4.88-14V42.54a23.39,23.39,0,0,1,1.34-8.37,15.39,15.39,0,0,1,3.72-5.75,14.41,14.41,0,0,1,5.69-3.32,24.28,24.28,0,0,1,7.27-1q9.06,0,12.95,4.88T439.21,43V56.37ZM430.72,42a15.29,15.29,0,0,0-1.62-7.67q-1.64-2.79-6.63-2.79-4.41,0-6.74,2.32t-2.32,7.56v7.55h17.31Z"/><path class="cls-1" d="M447.81,40.45q0-8.73,4.41-12.56t12.09-3.83a37.6,37.6,0,0,1,6.16.46,28.41,28.41,0,0,1,4.77,1.14V1.28L484.3,0V81h-7.44l-.93-4.15a32.53,32.53,0,0,1-6.39,3.66,20.43,20.43,0,0,1-8.37,1.65q-7,0-10.17-4T447.81,67Zm27.43-7.21a29,29,0,0,0-9.3-1.28q-4.89,0-7,1.92c-1.4,1.28-2.1,3.54-2.1,6.8V66.6a9.46,9.46,0,0,0,1.46,5.69c1,1.32,2.65,2,5.05,2a20.35,20.35,0,0,0,6.39-1,22.14,22.14,0,0,0,5.47-2.62Z"/><path class="cls-1" d="M504.41,56.37v7q0,6,2.56,8.66c1.7,1.74,4.53,2.62,8.48,2.62a32.89,32.89,0,0,0,13.13-2.56l1.4,7.21a28.91,28.91,0,0,1-7,2.09,45.84,45.84,0,0,1-8.49.81q-9.4,0-14.3-4.94t-4.88-14V42.54a23.39,23.39,0,0,1,1.34-8.37,15.39,15.39,0,0,1,3.72-5.75,14.55,14.55,0,0,1,5.69-3.32,24.28,24.28,0,0,1,7.27-1q9.06,0,13,4.88T530.21,43V56.37ZM521.73,42a15.29,15.29,0,0,0-1.63-7.67c-1.09-1.86-3.29-2.79-6.63-2.79q-4.41,0-6.74,2.32t-2.32,7.56v7.55h17.32Z"/><path class="cls-1" d="M562.64,33.47q-3.14.93-6.74,2.38a56.73,56.73,0,0,0-6.51,3.07V81h-9.07V25.22H548l.7,6.51a22.91,22.91,0,0,1,5.93-4.36,31.54,31.54,0,0,1,7.44-2.85Z"/><path class="cls-1" d="M602.5,81h-7.32l-1-4.07a23.79,23.79,0,0,1-5.76,3.55,18.56,18.56,0,0,1-7.84,1.68,15.34,15.34,0,0,1-6.63-1.28,11.3,11.3,0,0,1-4.3-3.48,14.09,14.09,0,0,1-2.32-5.23,29.26,29.26,0,0,1-.7-6.63q0-8.71,3.72-12.49t11.39-3.78h11.74V39q0-4.21-2-5.61T585.3,32a35.81,35.81,0,0,0-6.86.7,41.59,41.59,0,0,0-7.2,2.09l-1.51-7.37a28.47,28.47,0,0,1,7.79-2.46,49.91,49.91,0,0,1,9.06-.86q8,0,12,3t4,10.69Zm-9.06-24.29H583.21q-4.77,0-6.28,2.26a12,12,0,0,0-1.51,6.57,12.79,12.79,0,0,0,1.51,6.8q1.52,2.39,5.93,2.38a16.68,16.68,0,0,0,5.64-.93,27.54,27.54,0,0,0,4.94-2.32Z"/><path class="cls-1" d="M637.49,80.66a19.88,19.88,0,0,1-3.9,1,29.07,29.07,0,0,1-5.17.46c-3.79,0-6.7-1-8.71-3.14a11.75,11.75,0,0,1-3-8.51V33.12h-7.2v-7.9h7.2V10.58l9.19-1.05-.12,15.69h12.09l-.47,7.9H625.75V70a4.37,4.37,0,0,0,1.1,3.21,5.24,5.24,0,0,0,3.78,1.11,20.12,20.12,0,0,0,5.93-.93Z"/><rect class="cls-2" x="645.62" y="1.28" width="9.07" height="14.3"/><rect class="cls-1" x="645.62" y="25.22" width="9.07" height="55.79"/><path class="cls-1" d="M684.56,82.17q-8.84,0-13.83-4.53t-5-13.25V41.84q0-8.72,5-13.25t13.83-4.53q8.82,0,13.83,4.53t5,13.25V64.39q0,8.72-5,13.25T684.56,82.17Zm0-7.67a11.74,11.74,0,0,0,7-2q2.79-2,2.79-7.43v-24q0-5.46-2.79-7.43a13.28,13.28,0,0,0-13.95,0q-2.79,2-2.79,7.43v24q0,5.46,2.79,7.43A11.77,11.77,0,0,0,684.56,74.5Z"/><path class="cls-1" d="M741.16,81V38.11A5.78,5.78,0,0,0,739.88,34c-.85-.89-2.29-1.33-4.3-1.33a23.87,23.87,0,0,0-6.16.87,34.33,34.33,0,0,0-5.93,2.14V81h-9.06V25.22h7.67l.81,4.14a28.46,28.46,0,0,1,7.21-3.77,24.5,24.5,0,0,1,8.48-1.53q5.58,0,8.6,2.73c2,1.82,3,4.71,3,8.66V81Z"/></svg>