<svg id="图层_1" data-name="图层 1" xmlns="http://www.w3.org/2000/svg" viewBox="0 0 684.29 82.42"><defs><style>.cls-1{fill:#231815;}</style></defs><path class="cls-1" d="M45.62,0V7.81H80.78v66H45.62V82H35.86v-8.2H.31v-66H35.86V0ZM35.86,64.45V17.19H10.07V64.45Zm9.76-47.26V64.45H71V17.19Z"/><path class="cls-1" d="M99.14,2h83.2V82H99.14Zm74.22,9.38H108.12V72.66h65.24ZM167.89,57v8.59h-54.3V57h22.66V43.36H115.93V34.77h20.32V27H113.59V18.36h54.69V27H145.23v7.82h20.31v8.59H145.23V57Zm-8.6-10.94,8.6,6.64-9,2.35-9-6.64Z"/><path class="cls-1" d="M198.36,11.33l1.95-8.21,33.2-.39-1.95,8.6H225.7V22.66h6.64v9H225.7V46.88l7,7-1.95,8.59-5.08-5.08V82h-8.59V31.64H197.18v-9h19.93V11.33Zm-1.18,64.84L201.09,34l7,7L205,81.64Zm36.33-5.47,36.33-10.93V2.34h9.38V57l4.29-1.56,1.17,8.59-5.46,1.56V82h-9.38V68.75L234.29,79.3Zm28.91-21.48-5.08,7.42L236.25,38.28l5.07-7Zm3.51-29.3-4.68,7.42-20.71-18,5.47-7Z"/><path class="cls-1" d="M312.81,82H297.18V73.44h6.64v-18l-5.07,3.12L296,50l7.81-4.69V25.78h-6.64V17.19h6.64V2h9V17.19h6.64v8.59h-6.64V39.84l5.08-3.12,1.56,9L312.81,50Zm9.76-34.37,5.86-6.25,21.88,13.67,22.26-12.89V34.38H324.14v-8.6H348V15.62h-25.4v-9H348V1.17h9V6.64H383.9v9H357V25.78h25v20.7L358.12,60.16l24.61,15.23-5.47,7L349.92,65.23,320.62,82l-1.56-8.59,23.05-13.28Z"/><path class="cls-1" d="M474.14,54.3l5.47,18.36V82H400.7V72.66L415.15,41.8H399.53V32.42h82.81V41.8H425.7L411.25,72.66h58.2L464,53.91ZM403,3.91h76.18v9.37H403Z"/><path class="cls-1" d="M532.73,62.11V70.7l-3.51,1.18V82h-8.6V74.61L497.18,82l-1.56-8.2,4.3-1.17V12.5H496v-9h37.11v9h-3.9V63.28ZM516.32,54.3h-7.81V69.92L520.62,66V12.5H508.51V25.39h7.81V34h-7.81V45.7h7.81Zm16.41,21.48,16-19.14H535.07v-9h18.75V23.83h-18v-9h30.46l9-12.89,8.2,2.35-7.42,10.54h6.64v9H562.81V47.66h20.31v9H559.29L538.59,82ZM546.79,3.52l5.47,7.81-9,1.56L537,3.52Zm16,59.76,8.2-2.73L583.9,77.73,576.09,82Z"/><path class="cls-1" d="M626.09,59.77h19.14v8.59H622.57L608.51,82l-9.76-2.34,12.11-11.33H598V59.77h18.75V41.41H600.31v-9h16.41V15.23H599.14v-9h17.58V2h9.37v4.3h19.14v9H626.09V32.42h17.58v9H626.09Zm48.83,9.76V38.28l-5.47-3.51,5.86-22.27H660.47V82h-9.38V3.52h33.2v8.2L677.65,37.5h6.25V78.12H666.72V69.53Z"/></svg>